# xmcd
#
# Track frame offsets: 
#        204
#        10918
#        21970
#        37748
#        50659
#        62230
#        76253
#        96858
#        110431
#        120458
#        134069
#        146511
#        160573
#
# Disc length: 2349 seconds
#
# Revision: 0
# Processed by: cddbd v1.5.2PL0 Copyright (c) Steve Scherf et al.
# Submitted via: ExactAudioCopy v0.95b4
#
DISCID=a6092b0d
DTITLE=Hètten Dès - Cowboys Con Cojones
DYEAR=2005
DGENRE=PowerCountry
TTITLE0=Big River
TTITLE1=Hallelujah (Praise The Lord)
TTITLE2=I.C.U.
TTITLE3=Thirteen
TTITLE4=Solitary Man
TTITLE5=Drinkin' About You (I Still Do)
TTITLE6=The Devil In Miss Jones
TTITLE7=Ace Of Spades
TTITLE8=Y.I.C.U.R.A.B.
TTITLE9=Alone And Forsaken
TTITLE10=Goin' Home
TTITLE11=Lost In Reflection
TTITLE12=Highstreet Confidential (Picture Of You On My Mind)
EXTD=
EXTT0=
EXTT1=
EXTT2=
EXTT3=
EXTT4=
EXTT5=
EXTT6=
EXTT7=
EXTT8=
EXTT9=
EXTT10=
EXTT11=
EXTT12=
PLAYORDER=
